<svg width="48px" height="48px" xmlns="http://www.w3.org/2000/svg" fill-rule="evenodd" clip-rule="evenodd" fill="#FFD12F"><path d="M27 6h-3a2 2 0 0 0-2-2h-2a2 2 0 0 0-2 2H5a1 1 0 0 0 0 2h13a2 2 0 0 0 2 2h2a2 2 0 0 0 2-2h3a1 1 0 0 0 0-2zm-5 2h-2V6h2v2zm5 6H14a2 2 0 0 0-2-2h-2a2 2 0 0 0-2 2H5a1 1 0 0 0 0 2h3a2 2 0 0 0 2 2h2a2 2 0 0 0 2-2h13a1 1 0 0 0 0-2zm-15 2h-2v-2h2v2zm15 6h-7a2 2 0 0 0-2-2h-2a2 2 0 0 0-2 2H5a1 1 0 0 0 0 2h9a2 2 0 0 0 2 2h2a2 2 0 0 0 2-2h7a1 1 0 0 0 0-2zm-9 2h-2v-2h2v2z"/></svg>