<svg width="333" height="331" viewBox="0 0 333 331" fill="none" xmlns="http://www.w3.org/2000/svg">
<g clip-path="url(#clip0_877_278)">
<mask id="mask0_877_278" style="mask-type:alpha" maskUnits="userSpaceOnUse" x="-75" y="16" width="391" height="392">
<rect x="168.516" y="407.228" width="344" height="208" transform="rotate(-135 168.516 407.228)" fill="#C4C4C4"/>
</mask>
<g mask="url(#mask0_877_278)">
<ellipse cx="193.722" cy="137.804" rx="171.864" ry="208.335" transform="rotate(-135 193.722 137.804)" fill="#FCD60F"/>
</g>
<path d="M133.161 199.339C200.56 266.738 281.895 293.85 315.595 260.15C316.355 259.39 317.115 258.63 317.875 257.87C347.774 222.903 320.662 143.595 254.783 77.7163C188.904 11.8374 109.597 -15.2742 74.6305 14.6249C73.8703 15.3851 73.1104 16.1451 72.3501 16.9053C38.6505 50.6049 65.7621 131.94 133.161 199.339ZM246.675 85.8245C303.432 142.582 326.996 211.248 301.659 241.653C300.898 242.414 300.138 243.174 299.378 243.934C270.24 273.072 199.546 249.508 141.269 191.231C82.9917 132.953 59.4272 62.2601 88.5659 33.1215C89.3261 32.3613 90.086 31.6013 90.8463 30.8411C121.506 5.24987 189.918 29.0677 246.675 85.8245Z" fill="#FCD60F"/>
<ellipse cx="193.972" cy="138.528" rx="149" ry="74" transform="rotate(-135 193.972 138.528)" fill="white"/>
<ellipse cx="51.1368" cy="281.363" rx="20" ry="31" transform="rotate(-135 51.1368 281.363)" fill="#FCD60F"/>
<path d="M235.504 95.582L208.397 122.689C206.175 124.911 211.876 132.389 216.503 134.35L282.833 162.463C285.919 163.771 287.696 161.994 285.839 158.359C276.229 139.417 261.546 118.958 243.765 99.3997C241.465 96.21 236.837 94.2487 235.504 95.582Z" fill="#FCD60F"/>
<path d="M297.229 220.409C301.919 211.221 300.194 197.203 294.105 180.804C292.847 177.563 288.911 173.628 285.307 171.61L219.904 140.307C214.58 137.76 215.21 142.752 220.833 148.374L288.864 216.405C292.039 219.977 296.602 222.161 297.229 220.409Z" fill="#FCD60F"/>
<path d="M150.002 36.7356C132.886 30.5385 118.949 30.0422 109.589 34.9622C107.774 35.667 109.29 39.7028 113.175 43.5883L180.896 111.309C186.447 116.86 191.187 116.56 189.116 111.97L159.439 46.1721C157.713 42.3469 153.273 37.9062 150.002 36.7356Z" fill="#FCD60F"/>
<path d="M228.233 83.7417C208.378 65.6625 188.471 51.9698 169.942 42.3182C166.345 40.4967 164.791 42.0502 165.849 45.3272L193.368 111.019C195.608 116.366 202.678 121.217 204.898 118.998L231.974 91.9216C233.626 91.3539 231.706 86.7711 228.233 83.7417Z" fill="#FCD60F"/>
<path d="M100.437 44.0883C92.8133 55.8945 91.5273 71.8179 94.7661 89.4907C95.4697 92.9697 99.1291 96.6291 102.853 98.1327L171.683 119.221C177.286 120.938 177.725 115.271 172.497 110.043L108.717 46.2626C106.381 43.3713 101.579 41.9001 100.437 44.0883Z" fill="#FCD60F"/>
<path d="M238.269 239.909C258.358 243.959 275.7 241.561 288.486 233.373C290.911 232.097 289.888 227.372 285.865 223.349L215.747 153.231C210 147.484 203.999 148.886 205.597 154.185L228.499 230.138C229.83 234.554 234.428 239.152 238.269 239.909Z" fill="#FCD60F"/>
<path d="M188.585 142.501L150.718 180.368C148.855 182.23 150.023 186.502 153.831 190.311C174.113 208.109 195.322 220.628 215.674 228.564C219.636 230.042 221.808 227.87 221.185 224.142L201.094 150.665C199.458 144.683 191.689 139.397 188.585 142.501Z" fill="#FCD60F"/>
<path d="M145.601 175.585L183.537 137.649C186.647 134.54 181.619 127.024 176.617 125.755L104.93 107.55C101.595 106.703 99.1075 109.191 100.477 113.048C107.536 133.166 120.217 153.933 136.743 172.946C138.734 176.181 143.425 177.762 145.601 175.585Z" fill="#FCD60F"/>
</g>
<defs>
<clipPath id="clip0_877_278">
<rect width="333" height="331" fill="white"/>
</clipPath>
</defs>
</svg>
