<svg width="24" height="24" xmlns="http://www.w3.org/2000/svg" fill-rule="evenodd" fill="#ffffff"   clip-rule="evenodd"><path d="M9 23h-6v-7.988c.517.217 1.134.384 1.938.484.274.034.524-.16.558-.434.034-.274-.16-.524-.434-.558-4.81-.603-5.062-5.307-5.062-6.004 0-3.587 2.913-6.5 6.5-6.5.788 0 1.543.141 2.242.397.82-.86 1.977-1.397 3.258-1.397s2.438.537 3.258 1.397c.699-.256 1.454-.397 2.242-.397 3.587 0 6.5 2.913 6.5 6.5 0 .691-.252 5.401-5.062 6.004-.274.034-.468.284-.434.558.034.274.284.468.558.434.804-.1 1.421-.267 1.938-.484v7.988h-6v-3.5c0-.311-.26-.5-.5-.5-.239 0-.5.189-.5.5v3.5h-4v-3.5c0-.311-.26-.5-.5-.5-.239 0-.5.189-.5.5v3.5z"/></svg>